<svg width="16" height="16" viewBox="0 0 16 16" fill="none" xmlns="http://www.w3.org/2000/svg">
    <rect width="16" height="16" rx="3" fill="#344658" />
    <g transform="scale(0.4)">
        <path
            d="M12.5 10C13.8807 10 15 11.1193 15 12.5C15 13.8807 13.8807 15 12.5 15C11.1193 15 10 13.8807 10 12.5C10 11.1193 11.1193 10 12.5 10Z"
            fill="white" />
        <path
            d="M27.5 10C28.8807 10 30 11.1193 30 12.5C30 13.8807 28.8807 15 27.5 15C26.1193 15 25 13.8807 25 12.5C25 11.1193 26.1193 10 27.5 10Z"
            fill="white" />
        <path
            d="M20 30C21.3807 30 22.5 28.8807 22.5 27.5C22.5 26.1193 21.3807 25 20 25C18.6193 25 17.5 26.1193 17.5 27.5C17.5 28.8807 18.6193 30 20 30Z"
            fill="white" />
        <path
            d="M13.75 14.33L17.5 20H22.5L26.25 14.33V20H28.75V10.67L25 16.34L21.25 10.67H18.75L15 16.34L11.25 10.67V20H13.75V14.33Z"
            fill="white" />
        <path d="M17.5 22.5H22.5V25H17.5V22.5Z" fill="white" />
        <path
            d="M32.4833 24.4867C32.9981 23.1685 33.141 21.7489 32.9004 20.3524C32.6597 18.9559 32.0427 17.6231 31.1008 16.4689C30.1588 15.3147 28.9196 14.373 27.4892 13.7245C26.0588 13.076 24.4807 12.74 22.8892 12.7457C19.9702 12.7565 17.2075 13.9637 15.2122 16.0991C13.2169 18.2345 12.1321 21.142 12.1976 24.1782C12.2632 27.2145 13.4744 30.1637 15.5629 32.3733C17.6513 34.5829 20.4665 35.8948 23.3851 36.0193C25.1759 36.0962 26.9479 35.7498 28.5732 35.0028C30.1984 34.2558 31.6336 33.1284 32.7738 31.7031"
            stroke="#DA4A39" stroke-width="3" stroke-linecap="round" stroke-linejoin="round" />
        <path d="M28.2882 14.5846L16.0309 33.0392" stroke="#DA4A39" stroke-width="3"
            stroke-linecap="round" stroke-linejoin="round" />
    </g>
</svg>